<svg id="Layer_1" data-name="Layer 1" xmlns="http://www.w3.org/2000/svg" width="512" height="512" viewBox="0 0 512 512"><rect id="backgroundrect" width="512" height="512" fill="none"/><path id="svg_35" data-name="svg 35" d="M389.0439,162.1407c-13.3311-37.91-19.2671-70.344-13.2643-72.4764s21.6632,26.8474,34.9943,64.7573,19.2671,70.344,13.2643,72.4764S402.375,200.0506,389.0439,162.1407Z" fill="#ffdecc"/><rect id="svg_13" data-name="svg 13" x="149.1067" y="65.2419" width="259.1806" height="336.0605" fill="#ffdecc"/><rect id="svg_28" data-name="svg 28" x="149.1067" y="65.2419" width="259.1806" height="336.0605" fill="#ffdecc"/><path id="svg_18" data-name="svg 18" d="M168.5973,427.5563c-51.9519-34.575-74.5118-92.2112-50.4115-128.792s85.7024-38.2056,137.6543-3.6306,74.5117,92.2111,50.4115,128.792S220.5492,462.1312,168.5973,427.5563Z" fill="#ffdecc"/><path id="svg_24" data-name="svg 24" d="M344.86,253.3434c-38.7036-44.28-59.428-89.5294-46.31-101.1117s55.0932,14.9032,93.7968,59.1838,59.4279,89.5295,46.31,101.1118S383.564,297.624,344.86,253.3434Z" fill="#ffdecc"/><path id="svg_27" data-name="svg 27" d="M344.86,253.3434c-38.7036-44.28-59.428-89.5294-46.31-101.1117s55.0932,14.9032,93.7968,59.1838,59.4279,89.5295,46.31,101.1118S383.564,297.624,344.86,253.3434Z" fill="#ffdecc"/><path id="svg_29" data-name="svg 29" d="M356.041,282.5807c0-9.382,11.3417-16.9815,25.3437-16.9815s25.3438,7.5995,25.3438,16.9815-11.3417,16.9815-25.3438,16.9815S356.041,291.9628,356.041,282.5807Z" fill="#ffdecc"/><path id="svg_31" data-name="svg 31" d="M347.24,294.3157c1.9929-10.702,24.0683-15.5215,49.3289-10.77s44.1074,17.2694,42.1145,27.9714-24.0683,15.5215-49.3289,10.77S345.2469,305.0176,347.24,294.3157Z" fill="#ffdecc"/><path id="svg_38" data-name="svg 38" d="M372.9368,214.76c0-12.5673,11.3417-22.7468,25.3437-22.7468s25.3438,10.1795,25.3438,22.7468-11.3417,22.7468-25.3438,22.7468S372.9368,227.3269,372.9368,214.76Z" fill="#ffdecc"/><g id="svg_1" data-name="svg 1"><path id="svg_2" data-name="svg 2" d="M259.36,485.9244l-65.5073-46.0876s-2.62-81.6409,20.9623-100.0759,24.8928-81.641,20.9624-105.3432c0,0-12.2509-34.9279-49.2376-28.3324s-33.4073,48.5662-32.8107,70.7508-26.8452,64.755-45.935,77.3463c0,0,5.9655-51.7429-20.88-83.4315S46.3489,149.7244,72.0009,98.76,157.9054-3.1694,271.2516,2.8265,423.3741,66.3823,426.9534,90.9652s-21.4761,47.9667-21.4761,47.9667-31.021-20.9854-57.8662-19.7862c0,0,3.5794,50.365-60.849,77.9458l-5.369,70.1513,78.7458,83.9417s29.8279-28.18,45.3384-28.18,31.6176,14.99,31.6176,26.3816,2.3863,21.585-11.3346,35.3755c0,0-4.1759-15.5892-8.3518-11.3921s-11.3346,14.39-4.1759,34.1762,12.5277,56.9605-5.9656,90.5371S322.5557,493.8853,301.08,486.69s-41.7191-.7659-41.7191-.7659Z" fill="#b8b8b8"/><path id="svg_3" data-name="svg 3" d="M445.0494,295.1124a37.3268,37.3268,0,0,0-1.9737-7.2872c-.7717-2.3607-1.7826-4.57-2.6922-6.8457-3.8716-8.9532-8.4722-17.4792-13.1178-25.9649-4.1834-7.4989-8.565-14.8575-13.0507-22.1824a37.9716,37.9716,0,0,0,11.0107-4.994,14.1642,14.1642,0,0,0,5.4611-6.6263,10.0209,10.0209,0,0,0,.48-4.5188,28.6126,28.6126,0,0,0-.613-3.8682c-.9848-4.8993-2.2306-9.5986-3.47-14.3316-1.2454-4.7214-2.579-9.4129-3.9447-14.09-2.7021-9.3648-5.5915-18.6672-8.5375-27.949-3.0642-9.2479-6.006-18.53-9.2943-27.7022,2.2424,9.4855,4.733,18.8945,7.0272,28.3567l7.1787,28.284c2.2655,9.4245,4.8462,18.8854,6.5558,28.2632.4247,2.4022.8165,4.524.2335,5.9939a9.6589,9.6589,0,0,1-3.7719,4.3085,37.4008,37.4008,0,0,1-12.519,4.994l-3.3939.7687,1.8313,2.9035c5.11,8.0987,10.0566,16.3585,14.8614,24.66,4.8367,8.2858,9.4777,16.6949,13.6607,25.2611,1.9816,4.2838,3.9974,8.7169,4.9679,13.0565a22.35,22.35,0,0,1,.1176,6.76,21.2606,21.2606,0,0,1-1.7626,6.5652c-1.81,4.1916-5.2921,7.5573-9.15,10.2855a94.2164,94.2164,0,0,1-12.4383,7.147,74.472,74.472,0,0,0,13.1343-6.0757c4.1385-2.4906,8.1519-5.7446,10.5621-10.3076a23.1344,23.1344,0,0,0,2.3849-7.22A25.2085,25.2085,0,0,0,445.0494,295.1124Z" fill="#b8b8b8"/><path id="svg_4" data-name="svg 4" d="M166.3419,56.8321c-25.0982,10.5443-48.5988,25.9529-65.7327,47.1886s-27.47,48.6547-25.2885,75.9072a139.6415,139.6415,0,0,1,36.7913-52.5844c-19.4251,38.6086-20.6528,85.99-3.2533,125.5624-4.9744-31.353,6.443-64.8685,29.4935-86.5774l-2.5173,94.3374c-4.9166-21.4022-5.5755-44.4208,2.4725-64.8425s25.9077-37.703,47.5146-41,45.6552,10.1515,50.8408,31.4895q11.4418-23.5707,22.8839-47.1413l2.3106,37.2275a128.3037,128.3037,0,0,1,55.3092-70.1927c26.2617-15.8594,55.6341-19.9009,85.6486-16.6643-35.2462-16.9962-66.3657-37.83-105.8659-45.4277-43.5405-8.375-89.6-4.51-130.6072,12.718Z" fill="#909090" opacity="0.25" style="isolation:isolate"/><path id="svg_5" data-name="svg 5" d="M135.47,107.7009c48.4315-34.29,110.5164-48.479,168.9386-38.61-27.7241,7.8445-50.1332,32.2025-55.7469,60.5952a21.4979,21.4979,0,0,1-3.8264-24.1557,189.4722,189.4722,0,0,1-37.7736,29.254c-8.47-6.8143-20.4638-7.7666-30.9871-5.1138s-19.9445,8.4582-29.1785,14.1825l-5.5159,3.4194-3.9213,2.4309q-9.7952,6.072-19.59,12.1442c3.8985-8.2086,7.8166-16.4519,12.8788-23.9916a92.8077,92.8077,0,0,1,65.6516-39.97c-26.8989-4.4926-55.7808,5.74-73.9308,26.1927a44.8693,44.8693,0,0,1,23.3164-27.272" fill="#b8b8b8" opacity="0.25" style="isolation:isolate"/><path id="svg_6" data-name="svg 6" d="M398.5521,388.56q2.9421,32.9268,5.8841,65.8536c.5666,6.3411,1.1132,12.8826-.8132,18.9476s-6.9823,11.593-13.3029,12.0131c-8.0244.5334-14.0943-6.6824-19.8708-12.3058-23.1749-22.561-62.9934-25.0093-88.7318-5.4561,8.3655-16.5159,27.3679-26.9123,45.71-25.0082-19.6049-11.1128-45.7046-9.3393-63.6428,4.3246l16.6674-28.8343-25.0227,23.6238q4.3753-19.0036,8.7509-38.0073a47.3557,47.3557,0,0,0-29.2,31.6191,76.9677,76.9677,0,0,1,6.9336-66.4586,64.2393,64.2393,0,0,0-17.0212,44.6066c-8.725-10.5046-8.4071-26.1043-3.9757-39.043s12.3313-24.3742,17.8227-36.8956c10.3508-23.6015,11.7755-50.1137,11.412-75.9038q10.1066,25.3684,20.213,50.737.2962-13.3818.5924-26.7636A397.6027,397.6027,0,0,1,305.6131,376.08q3.7643-18.8649,7.5285-37.73L330.54,368.3905l5.5675-9.1173,20.3412,33.8188c4.1136-32.3762,36.1682-58.5184,68.5378-55.896,3.3334,1.5989,2.9879,6.8642.3959,9.5088s-6.4059,3.5389-9.8427,4.8987c-19.06,7.5411-27.2078,34.4994-15.541,51.4215" fill="#909090" opacity="0.25" style="isolation:isolate"/><path id="svg_7" data-name="svg 7" d="M257.3817,389.9073a69.8964,69.8964,0,0,0,22.7145-28.8107q-.2835,16.4928-.5669,32.9857c-.0315,1.8316.0088,3.8624,1.25,5.2041,1.6319,1.7648,4.4418,1.4583,6.7978,1.0136l34.8964-6.5868q-3.1048,11.7711-6.21,23.5421c14.1733-9.2443,34.3751-7.815,47.12,3.3339,9.2524,8.0937,14.1736,19.9585,18.788,31.381a191.0989,191.0989,0,0,1-5.5489-63.1546,13.3155,13.3155,0,0,1-7.4568,13.4675c-5.0894,2.3129-11.2243,1.0264-15.98-1.9173s-8.4139-7.34-11.9833-11.6581l-5.1488,14.6816-4.0707-24.1369-23.0067,8.5632c-5.7727,2.1486-12.7891,4.1308-17.62.2961-3.3129-2.63-4.3636-7.1424-5.2051-11.3l-6.0231-29.7589-10.3452,11.9245c-1.3226,0-6.8548-15.8171-8.1472-17.53-3.039,5.929-1.8834,16.7547-2.3894,23.5231q-.9321,12.4686-1.8643,24.9372Z" fill="#b8b8b8"/></g></svg>