<svg id="Layer_1" data-name="Layer 1" xmlns="http://www.w3.org/2000/svg" width="512" height="512" viewBox="0 0 512 512"><path d="M301.36,291.988V233.7315H210.6374v58.2576l-43.2411,24.5216V399.575H351.8391V320.6156Z" fill="#ffdecc"/><path d="M259.5992,62.8572c-45.8688,0-83.0525,43.6541-83.0525,97.5049S202.5519,289.26,248.4207,289.26s94.231-75.0485,94.231-128.8981S305.468,62.8572,259.5992,62.8572Z" fill="#ffdecc"/><path d="M424.321,426.0552V486.4H87.679V426.0552a105.4927,105.4927,0,0,1,21.3966-63.7092l4.028-5.23a104.5018,104.5018,0,0,1,31.9147-27.8875l38.6472-21.9374a88.7551,88.7551,0,0,0,144.67,0l38.6471,21.9374a104.5115,104.5115,0,0,1,31.9148,27.8875l3.967,5.23A105.1633,105.1633,0,0,1,424.321,426.0552Z" fill="#ededed"/><path d="M357.936,441.4768l-3.17,44.923,5.6729,0Z" fill="#dbd8dd"/><path d="M154.7284,441.4768l-3.17,44.923,5.6729,0Z" fill="#dbd8dd"/><path d="M271.8663,99.89a41.7866,41.7866,0,0,1-18.9517,21.6811c-8.307,4.506-17.8428,6.0253-27.0706,8.0647s-18.704,4.8679-25.6215,11.3068-10.4237,17.4369-5.7082,25.6269a56.5825,56.5825,0,0,1-10.786-42.7511,96.7618,96.7618,0,0,0,9.5015,78.205c9.15,15.0451,22.2532,27.2475,32.7611,41.3776s18.6115,31.667,15.3081,48.9634c-3.4742,18.1911-18.4564,31.6229-32.5688,43.6158a111.3058,111.3058,0,0,0-39.9851-56.363c-9.9708-7.3539-21.5557-13.41-28.038-23.9677-8.8233-14.3712-5.67-33.0926.6859-48.7124s15.6526-30.2646,18.7846-46.8348c5.8091-30.7338-10.4066-63.655.1865-93.0845A54.8264,54.8264,0,0,1,197.457,33.136C214.3146,28.74,236.07,34.38,249.223,45.8035" fill="#9c9c9c"/><path d="M382.01,182.4837c-3.3064-12.5468-9.1372-24.273-13.2812-36.5687a142.3047,142.3047,0,0,1-6.3783-62.44c2.57-21.0433-14.83-40.7375-34.1246-49.52-30.429-13.85-55.2294-7.0894-63.2642-3.6052-11.5077,4.99-18.7977,17.3485-19.78,29.8528S248.8023,85.1611,255.83,95.55l13.5051,2.4266c10.7238,8.6681,20.82,18.4014,27.9765,30.1872s11.2042,25.8471,9.1805,39.4867c-.8476,5.7159-2.905,11.5226-7.2047,15.3826s-11.2324,5.1627-15.9422,1.8151c-3.6718-2.6094-5.2626-7.4115-5.1356-11.9143s1.7119-8.82,3.2785-13.0431c-6.8346,3.6573-7.9545,12.8149-8.2413,20.5612-.2444,6.6027-.3206,13.78,3.626,19.0791,5.53,7.4253,17.2723,7.8067,25.08,2.8318s12.2871-13.817,15.0659-22.6486a93.25,93.25,0,0,0,3.5953-39.1661c8.2138,4.2289,9.7,15.13,10.1659,24.3575.42,8.3279.7668,17.0484-2.7868,24.5915-3.0795,6.5357-8.74,11.4244-14.2407,16.1079l-43.6469,37.1657c-8.6052,7.3271-9.6322,20.764-9.0981,32.0527s4.2851,22.2318,9.3683,32.3257a126.8416,126.8416,0,0,0,38.2889,45.1689c4.1144-19.6166,8.7159-40.2223,22.1278-55.1171,6.748-7.4936,15.3361-13.0563,22.8363-19.7964C379.4665,254.185,390.8618,216.075,382.01,182.4837Z" fill="#9c9c9c"/><path d="M260.7054,66.027a90.9287,90.9287,0,0,1,48.4746,63.14c-.5483-3.4483-1.0874-7.044-.0446-10.3762s4.1853-6.2867,7.6538-5.8849c2.62.3036,4.6691,2.3428,6.37,4.3589,11.5589,13.6975,17.2977,31.4837,19.7588,49.2368,1.138,8.21,1.6275,16.6063.1155,24.7553-3.2791,17.6727-15.4421,32.1865-27.1654,45.8115-24.5026,28.4774-29.62,71.4667-15.8419,106.4164a108.753,108.753,0,0,1,10.93-71.0143c4.33-8.0673,9.6656-15.544,14.9857-22.9955a78.828,78.828,0,0,1-7.6054,50.086c7.0666-12.7993,14.14-25.6119,20.2754-38.8826a269.1671,269.1671,0,0,0,12.7066-32.7113q2.505-8.0251,4.4423-16.213c5.0432-21.3174,6.8966-44.7544-3.0749-64.259-6.9668-13.6274-7.2967-30.2833-7.3815-45.588-.0479-8.6671.7621-17.7214-2.7574-25.642-4.5636-10.27-15.3419-16.232-25.8486-20.2217a145.4771,145.4771,0,0,0-40.8011-9.06c-4.1409-.3075-8.3871-.4261-12.3575.79s-7.67,3.9846-9.0213,7.9108S256.9757,64.2019,260.7054,66.027Z" fill="#848484" opacity="0.25" style="isolation:isolate"/><path d="M160.22,192.1705a90.5521,90.5521,0,0,0,19.6422,69.1115q-.6656-1.2677-1.2956-2.5534c17.3431-12.5046-6.8774,4.9587,10.4658-7.5459,6.3052,6.1174,12.345,12.5032,17.2005,19.8a69.6835,69.6835,0,0,1,7.4637,15.0091c1.9546,5.43,10.2589,3.6551,9.7779-2.0961q-.01-.1241-.0214-.248c-.7353-8.2628-3.5359-16.2257-7.1323-23.701a114.424,114.424,0,0,0-10.8955-18.1333c-5.7367-7.8075-12.4459-14.86-18.2085-22.6484s-10.7379-16.1065-12.6418-25.606c-3.1807-15.8706-1.1585-32.2669.8733-48.3251,1.0051-7.9445,2.0187-15.93,4.2855-23.61a74.5161,74.5161,0,0,1,6.3579-15.124,5.0842,5.0842,0,0,1,9.4837,3.1414l-1.1012,8.0664a5.0521,5.0521,0,0,0,7.9694,4.7727,45.0808,45.0808,0,0,1,7.6918-4.344c7.8832-3.5206,16.4357-5.3057,24.4311-8.5635s15.7743-8.4238,19.3028-16.3035c2.6334-5.8807,2.5957-12.68,1.1348-18.9554s-4.2566-12.1474-7.0321-17.9624c-3.9748-8.328-16.3-10.4513-24.8733-13.864s-18.4224-4.5626-26.9979-1.1544c-9.2662,3.6828-15.9078,12.244-19.5542,21.5246s-4.6925,19.3444-5.7046,29.2641l-2.1957,21.5205c-1.8687,18.3147-3.7347,36.835-1.4461,55.0854a4.9512,4.9512,0,0,1-.6127,3.0335C162.9983,178.1679,161.2371,184.7812,160.22,192.1705Z" fill="#848484" opacity="0.25" style="isolation:isolate"/><path d="M291.4672,75.7737a25.1548,25.1548,0,0,1,13.3675,23.3746c2.809-4.9409,8.39-8.9229,13.9342-7.6728a12.876,12.876,0,0,1,7.3746,5.3663,38.2734,38.2734,0,0,1,4.0784,8.3629q6.1831,15.8285,12.3661,31.657c.9288-22.5685-8.4282-44.14-17.5975-64.7825-1.5412-3.4695-3.1779-7.0681-6.1021-9.4892-3.8271-3.1689-9.1461-3.7416-14.1148-3.72-6.2889.0281-12.0714.299-17.9174-2.3924-4.1277-1.9-8.8621-4.8464-12.45-.3584C265.601,67.1347,285.271,72.6183,291.4672,75.7737Z" fill="#9c9c9c" opacity="0.25" style="isolation:isolate"/><path d="M236.7339,85.46c-1.2445,9.9615-7.7408,19.924-17.5186,22.1986-5.38,1.2516-11.9286.4644-15.4938,4.6836L217.34,91.4645c3.9132-5.9989,7.9888-12.6093,7.3418-19.7424L186.5943,92.1612c-3.366,1.8063-6.8239,3.687-9.2382,6.6473s-3.5489,7.3054-1.7237,10.6612c-2.411-4.8289-2.4133-10.5777-1.1118-15.8158s3.8109-10.0836,6.2988-14.8733l3.4263-6.5961,4.42-8.5089,2.8781-5.5408c1.4864-2.8617,3.1151-5.8757,5.9124-7.48,3.0742-1.7632,6.8692-1.4381,10.393-1.06a79.9479,79.9479,0,0,1,13.5676,2.2489c7.308,2.0951,10.5059,4.0278,12.6293,11.23C236.18,70.3121,237.6792,77.8933,236.7339,85.46Z" fill="#9c9c9c" opacity="0.25" style="isolation:isolate"/><path d="M357.4636,175.78c13.52,28.54,11.9048,63.7439-4.172,90.9259l7.18-31.0277c1.9051-8.2322,3.8192-16.533,4.031-24.98s-1.3978-17.1579-6.0424-24.2167" fill="#848484" opacity="0.25" style="isolation:isolate"/></svg>