<svg id="Layer_1" data-name="Layer 1" xmlns="http://www.w3.org/2000/svg" width="512" height="512" viewBox="0 0 512 512"><rect id="backgroundrect" width="512" height="512" fill="none"/><path id="svg_35" data-name="svg 35" d="M190.9324,91.5631c-6.4974-17.9266-9.3905-33.2639-6.4648-34.2722s10.5583,12.6954,17.0557,30.622,9.3906,33.2639,6.4649,34.2722S197.43,109.49,190.9324,91.5631Z" fill="#ffdecc"/><rect id="svg_13" data-name="svg 13" x="73.9902" y="45.7422" width="126.3212" height="158.9142" fill="#ffdecc"/><rect id="svg_28" data-name="svg 28" x="73.9902" y="45.7422" width="126.3212" height="158.9142" fill="#ffdecc"/><path id="svg_18" data-name="svg 18" d="M83.49,217.0711c-25.3207-16.35-36.3161-43.6042-24.57-60.9023s41.77-18.0664,67.0909-1.7168,36.3161,43.6042,24.57,60.9023S108.81,233.4207,83.49,217.0711Z" fill="#ffdecc"/><path id="svg_24" data-name="svg 24" d="M169.398,134.69c-18.8636-20.9391-28.9644-42.3361-22.5709-47.8131s26.8517,7.0474,45.7153,27.9865,28.9644,42.3362,22.5709,47.8131S188.2616,155.63,169.398,134.69Z" fill="#ffdecc"/><path id="svg_27" data-name="svg 27" d="M169.398,134.69c-18.8636-20.9391-28.9644-42.3361-22.5709-47.8131s26.8517,7.0474,45.7153,27.9865,28.9644,42.3362,22.5709,47.8131S188.2616,155.63,169.398,134.69Z" fill="#ffdecc"/><path id="svg_29" data-name="svg 29" d="M174.8473,148.516c0-4.4365,5.5277-8.03,12.3521-8.03s12.3522,3.5936,12.3522,8.03-5.5277,8.03-12.3522,8.03S174.8473,152.9525,174.8473,148.516Z" fill="#ffdecc"/><path id="svg_31" data-name="svg 31" d="M170.5577,154.0651c.9713-5.0606,11.73-7.34,24.0422-5.0926s21.4974,8.1662,20.5261,13.2269-11.7306,7.34-24.0423,5.0927S169.5863,159.1258,170.5577,154.0651Z" fill="#ffdecc"/><path id="svg_38" data-name="svg 38" d="M183.082,116.4452c0-5.9428,5.5278-10.7564,12.3522-10.7564s12.3522,4.8136,12.3522,10.7564-5.5277,10.7563-12.3522,10.7563S183.082,122.3879,183.082,116.4452Z" fill="#ffdecc"/><g id="svg_1" data-name="svg 1"><path id="svg_2" data-name="svg 2" d="M127.7264,244.6719,95.799,222.8783s-1.2771-38.6059,10.2168-47.3233,12.1324-38.6059,10.2167-49.814c0,0-5.9709-16.5165-23.9977-13.3977S75.9525,135.309,76.2433,145.8s-13.084,30.621-22.3881,36.575c0,0,2.9075-24.4678-10.1765-39.4525s-19.7713-57.23-7.2688-81.33,41.8687-48.2,97.1121-45.3644,74.1425,30.0539,75.887,41.6785-10.4672,22.6822-10.4672,22.6822-15.1192-9.9234-28.2032-9.3564c0,0,1.7446,23.8163-29.657,36.8586l-2.6168,33.1727,38.38,39.6938s14.5377-13.3258,22.0974-13.3258,15.41,7.0882,15.41,12.4752,1.163,10.207-5.5244,16.7281c0,0-2.0352-7.3717-4.07-5.387s-5.5244,6.8047-2.0353,16.1611,6.1058,26.9351-2.9076,42.8126-41.2871-1.9847-51.7543-5.387a37.2271,37.2271,0,0,0-20.3334-.3622Z" fill="#b8b8b8"/><path id="svg_3" data-name="svg 3" d="M218.2288,154.4419a17.2411,17.2411,0,0,0-.962-3.446c-.3761-1.1163-.8688-2.1607-1.3121-3.2371-1.887-4.2337-4.1293-8.2654-6.3935-12.2781-2.0389-3.546-4.1745-7.0257-6.3607-10.49a18.7857,18.7857,0,0,0,5.3665-2.3615,6.75,6.75,0,0,0,2.6616-3.1334,4.6042,4.6042,0,0,0,.2338-2.1368,13.16,13.16,0,0,0-.2988-1.8292c-.48-2.3167-1.0871-4.5389-1.6913-6.7771-.607-2.2326-1.257-4.4511-1.9226-6.6628-1.317-4.4283-2.7253-8.8272-4.1611-13.2163-1.4934-4.3731-2.9272-8.7622-4.53-13.1,1.0929,4.4855,2.3068,8.9347,3.425,13.4092l3.4988,13.3747c1.1041,4.4566,2.3619,8.93,3.1952,13.365a5.6775,5.6775,0,0,1,.1138,2.8343,4.6115,4.6115,0,0,1-1.8384,2.0374,18.555,18.555,0,0,1-6.1016,2.3615l-1.6541.3635.8925,1.373c2.49,3.83,4.9015,7.7355,7.2432,11.661,2.3574,3.9181,4.6194,7.8946,6.6581,11.9453a31.3765,31.3765,0,0,1,2.4213,6.1741,10.26,10.26,0,0,1,.0573,3.1966,9.8158,9.8158,0,0,1-.8591,3.1045,12.285,12.285,0,0,1-4.4593,4.8637,46.296,46.296,0,0,1-6.0623,3.38,36.8311,36.8311,0,0,0,6.4015-2.8731,13.22,13.22,0,0,0,5.1478-4.8741,10.7151,10.7151,0,0,0,1.1624-3.414A11.5749,11.5749,0,0,0,218.2288,154.4419Z" fill="#b8b8b8"/><path id="svg_4" data-name="svg 4" d="M82.39,41.7654C70.1579,46.7515,58.704,54.0378,50.3532,64.08S36.9644,87.0872,38.0279,99.9741A66.0608,66.0608,0,0,1,55.96,75.1084a68.8667,68.8667,0,0,0-1.5856,59.3751,46.2855,46.2855,0,0,1,14.3747-40.94q-.6134,22.3049-1.2269,44.61c-2.3963-10.12-2.7174-21.0054,1.2051-30.6623s12.627-17.8287,23.158-19.388,22.2517,4.8,24.7791,14.8906l11.1533-22.2919,1.1262,17.6039A61.01,61.01,0,0,1,155.9,65.1131c12.8-7.5,27.1154-9.4107,41.744-7.88-17.1785-8.0371-32.3457-17.8888-51.5976-21.4816-21.2211-3.96-43.67-2.1326-63.6562,6.014Z" fill="#909090" opacity="0.25" style="isolation:isolate"/><path id="svg_5" data-name="svg 5" d="M67.3438,65.82a114.6047,114.6047,0,0,1,82.3384-18.2577c-13.5124,3.71-24.4342,15.2278-27.17,28.6539a9.9376,9.9376,0,0,1-1.865-11.4226,92.0488,92.0488,0,0,1-18.41,13.8335c-4.1281-3.2223-9.9738-3.6726-15.1027-2.4182s-9.7207,4-14.2212,6.7065l-2.6884,1.617-1.9112,1.1495-9.5479,5.7426a86.4136,86.4136,0,0,1,6.2769-11.345A45.4583,45.4583,0,0,1,97.04,61.1786,40.9366,40.9366,0,0,0,61.0069,73.5645,21.4114,21.4114,0,0,1,72.3711,60.6682" fill="#b8b8b8" opacity="0.25" style="isolation:isolate"/><path id="svg_6" data-name="svg 6" d="M195.5666,198.6306q1.4339,15.57,2.8678,31.14c.2762,2.9986.5426,6.0919-.3963,8.96s-3.4031,5.482-6.4837,5.6806c-3.911.2523-6.8693-3.16-9.6847-5.8191-11.2952-10.6684-30.7022-11.8262-43.2468-2.58a23.1317,23.1317,0,0,1,22.2784-11.8257,29.6292,29.6292,0,0,0-31.0187,2.0449l8.1235-13.6349L125.81,223.7677l4.2651-17.9726a22.6721,22.6721,0,0,0-14.2318,14.9518A35.4541,35.4541,0,0,1,119.223,189.32a29.8716,29.8716,0,0,0-8.2959,21.0933c-4.2524-4.9673-4.0975-12.344-1.9377-18.4624s6.01-11.5259,8.6865-17.447c5.0449-11.1605,5.7393-23.6975,5.5621-35.8929l9.8516,23.9922q.1443-6.3279.2887-12.6558a184.6308,184.6308,0,0,1,16.891,42.7813l3.6693-17.8414,8.48,14.2055,2.7135-4.3113,9.9141,15.992c2.0049-15.31,17.6279-27.6718,33.4044-26.4318,1.6246.7561,1.4562,3.2459.1929,4.4965s-3.1221,1.6734-4.7972,2.3164c-9.29,3.566-13.2607,16.3139-7.5745,24.3159" fill="#909090" opacity="0.25" style="isolation:isolate"/><path id="svg_7" data-name="svg 7" d="M126.762,199.2679a33.2316,33.2316,0,0,0,11.0708-13.6238q-.1381,7.7989-.2764,15.5981a3.38,3.38,0,0,0,.6091,2.4609c.7954.8345,2.1649.6895,3.3131.4792l17.0081-3.1147Q156.9735,206.634,155.46,212.2a20.0822,20.0822,0,0,1,22.9657,1.5765c4.5095,3.8273,6.908,9.4378,9.157,14.8392a87.7733,87.7733,0,0,1-2.7044-29.8641,6.2617,6.2617,0,0,1-3.6344,6.3684,8.7032,8.7032,0,0,1-7.7885-.9066,24.8933,24.8933,0,0,1-5.8406-5.5128q-1.2546,3.4711-2.5094,6.9425-.992-5.7069-1.984-11.4137l-11.2131,4.0493c-2.8136,1.016-6.2333,1.9533-8.5879.14-1.6146-1.2435-2.1267-3.3774-2.5369-5.3435q-1.4677-7.036-2.9356-14.0722l-5.0421,5.6388c-.6446,0-3.3409-7.48-3.9708-8.29-1.4812,2.8037-.9179,7.9229-1.1645,11.1235l-.9087,11.7922Z" fill="#b8b8b8"/></g><line x1="43.0626" y1="470.3382" x2="431.8495" y2="41.0804" fill="none" stroke="#b5b5b5" stroke-miterlimit="10" stroke-width="3"/><path d="M390.5,358.5724V324.4106H338.3949v34.1618l-24.8175,14.3562v48.6937H419.5116V375.331Z" fill="#ffdecc"/><path d="M366.487,224.3277c-26.3687,0-47.7393,25.6067-47.7393,57.1317S333.6842,356.99,360.0528,356.99s54.1161-43.9474,54.1161-75.5309C414.2263,249.8758,392.8557,224.3277,366.487,224.3277Z" fill="#ffdecc"/><path d="M461.104,437.15v35.3337h-193.37V437.15a62.5338,62.5338,0,0,1,12.2939-37.326l2.2979-3.0471a60.1616,60.1616,0,0,1,18.3259-16.3484l22.175-12.8326a50.4482,50.4482,0,0,0,83.1273,0l22.175,12.8326a60.1616,60.1616,0,0,1,18.3259,16.3484l2.2979,3.0471A62.2072,62.2072,0,0,1,461.104,437.15Z" fill="#ededed"/><path d="M422.9585,446.1743l-1.8384,26.31h3.2746Z" fill="#dbd8dd"/><path d="M306.224,446.1743l-1.8383,26.31H307.66Z" fill="#dbd8dd"/><path d="M373.5531,246.0085a24.2416,24.2416,0,0,1-10.9151,12.7154c-4.7682,2.6368-10.2258,3.5158-15.5684,4.7463-5.2853,1.172-10.7428,2.8713-14.7067,6.6214s-5.9746,10.1958-3.2746,15.0008a33.5787,33.5787,0,0,1-6.2044-25.0794,57.6444,57.6444,0,0,0,5.4576,45.8225c5.2852,8.7895,12.8109,15.9383,18.843,24.259,6.032,8.2621,10.6853,18.5751,8.7895,28.7123-2.0107,10.6646-10.6279,18.5165-18.7281,25.5481a65.1072,65.1072,0,0,0-22.9792-33.0484c-5.7448-4.3362-12.4088-7.852-16.0854-14.0632-5.0555-8.4379-3.2746-19.3955.4021-28.5365s9.0193-17.7548,10.8-27.4232c3.332-17.9892-5.9746-37.326.1149-54.5534a31.7058,31.7058,0,0,1,21.3133-19.8642c9.7087-2.5783,22.1749.7031,29.7581,7.4417" fill="#9c9c9c"/><path d="M436.8034,294.4092c-1.8957-7.3246-5.2277-14.239-7.6405-21.4463a85.7463,85.7463,0,0,1-3.6767-36.5643c1.4936-12.3053-8.5023-23.8488-19.59-29.0053-17.4642-8.1449-31.7113-4.16-36.3646-2.1095-6.6066,2.93-10.8,10.1373-11.3747,17.52-.5745,7.3246,2.0681,14.6492,6.0894,20.6846l7.7555,1.4063c6.147,5.0979,11.9492,10.7818,16.0855,17.6962s6.4342,15.1179,5.2852,23.1456c-.46,3.34-1.666,6.7386-4.1362,9.0239s-6.4342,3.047-9.1343,1.0547a8.1036,8.1036,0,0,1-2.93-6.973,23.5388,23.5388,0,0,1,1.8958-7.6175c-3.9065,2.168-4.5959,7.5-4.7108,12.0709-.1149,3.8673-.1723,8.0863,2.0682,11.1919,3.16,4.3362,9.9385,4.57,14.4194,1.6407s7.0661-8.0863,8.6747-13.2428a55.49,55.49,0,0,0,2.0681-22.97c4.7108,2.4611,5.5725,8.8481,5.86,14.2976.23,4.8635.46,9.9614-1.6085,14.4148-1.7809,3.8087-4.998,6.68-8.1577,9.434-8.33,7.266-16.7173,14.532-25.0473,21.7979-4.9405,4.2776-5.515,12.1881-5.2278,18.81s2.47,13.0085,5.4,18.9267a74.4114,74.4114,0,0,0,22.0026,26.4856c2.3554-11.4849,4.998-23.5558,12.696-32.2867,3.8491-4.3947,8.79-7.6761,13.0982-11.6021C435.3672,336.4229,441.9163,314.0976,436.8034,294.4092Z" fill="#9c9c9c"/><path d="M367.1189,226.2028a53.2474,53.2474,0,0,1,27.8623,36.9744,13.6409,13.6409,0,0,1,0-6.094c.5745-1.9337,2.4129-3.6916,4.4235-3.4572a6.0051,6.0051,0,0,1,3.6767,2.5782c6.664,8.0278,9.9385,18.458,11.3747,28.83a47.4071,47.4071,0,0,1,.0575,14.5319c-1.8958,10.3716-8.847,18.8681-15.6259,26.8372-14.0748,16.7-17.0046,41.8965-9.0768,62.3468a65.1376,65.1376,0,0,1,6.2619-41.6036,126.7725,126.7725,0,0,1,8.6172-13.4772,47.16,47.16,0,0,1-4.3661,29.3569c4.0788-7.5,8.1-15.0007,11.662-22.7941a159.9953,159.9953,0,0,0,7.2959-19.1611c.9766-3.1642,1.8383-6.3284,2.5277-9.4926,2.8724-12.4811,3.9639-26.2512-1.7809-37.6776-4.0214-7.9691-4.1937-17.7547-4.2512-26.72,0-5.0979.46-10.3716-1.6085-15.0007-2.6426-6.0355-8.79-9.4927-14.8216-11.8365a83.0914,83.0914,0,0,0-23.4388-5.3323,19.4511,19.4511,0,0,0-7.1236.4688,7.6671,7.6671,0,0,0-5.17,4.6291C362.81,222.394,364.9934,225.09,367.1189,226.2028Z" fill="#848484" opacity="0.25" style="isolation:isolate"/><path d="M309.3836,300.0931a53.6987,53.6987,0,0,0,11.26,40.49c-.23-.4688-.5171-.9962-.7469-1.5235,9.9385-7.3246-3.9639,2.93,6.0321-4.3948a72.6718,72.6718,0,0,1,9.881,11.6021,40.0969,40.0969,0,0,1,4.3086,8.7895,2.9075,2.9075,0,0,0,5.63-1.2305v-.1172a40.6769,40.6769,0,0,0-4.0789-13.8874,67.318,67.318,0,0,0-6.2618-10.606c-3.2745-4.5705-7.1235-8.7308-10.4555-13.2428-3.332-4.57-6.147-9.434-7.2385-15.0007-1.8383-9.3168-.6894-18.9267.517-28.3021a87.1756,87.1756,0,0,1,2.47-13.8288,44.1018,44.1018,0,0,1,3.6767-8.8481,2.9232,2.9232,0,0,1,5.4575,1.8165l-.6319,4.7463a2.919,2.919,0,0,0,4.5959,2.8127,22.1759,22.1759,0,0,1,4.4235-2.52c4.5384-2.0509,9.4214-3.1056,14.0173-5.0393s9.0768-4.9221,11.0875-9.5512a17.9708,17.9708,0,0,0,.6319-11.1334,58.5046,58.5046,0,0,0-4.0214-10.5474c-2.2979-4.8635-9.364-6.1526-14.3045-8.1449s-10.57-2.6954-15.511-.7031c-5.3427,2.168-9.1342,7.1487-11.26,12.5982-2.0682,5.45-2.7,11.3092-3.2746,17.1688-.4021,4.219-.8617,8.3793-1.2638,12.5983-1.0915,10.7231-2.1256,21.5635-.8043,32.2867a3.0313,3.0313,0,0,1-.3447,1.7579A30.9689,30.9689,0,0,0,309.3836,300.0931Z" fill="#848484" opacity="0.25" style="isolation:isolate"/><path d="M384.8129,231.8867a14.8616,14.8616,0,0,1,7.6981,13.7116c1.6085-2.8713,4.8256-5.2151,7.9853-4.512a7.4182,7.4182,0,0,1,4.2511,3.1643,24.1587,24.1587,0,0,1,2.3554,4.9221c2.3554,6.2112,4.7107,12.3638,7.1235,18.5751.5171-13.2428-4.8256-25.8411-10.1108-37.9706a14.2743,14.2743,0,0,0-3.5044-5.5667c-2.183-1.875-5.2277-2.168-8.1-2.168-3.6193,0-6.9513.1758-10.2832-1.4063-2.3554-1.1134-5.1129-2.8127-7.1236-.2344C369.9339,226.8474,381.2512,230.0116,384.8129,231.8867Z" fill="#9c9c9c" opacity="0.25" style="isolation:isolate"/><path d="M353.3314,237.5705c-.6894,5.86-4.4235,11.6608-10.0534,13.0085-3.1022.7617-6.8363.293-8.9045,2.754,2.5852-4.1017,5.2278-8.1449,7.813-12.2467,2.24-3.5158,4.5958-7.3831,4.1937-11.5435l-21.8877,11.9537a16.7957,16.7957,0,0,0-5.2852,3.8674,5.998,5.998,0,0,0-.9766,6.27,13.8345,13.8345,0,0,1-.632-9.2582,41.1128,41.1128,0,0,1,3.6193-8.7309c.6319-1.2892,1.3213-2.5783,1.9532-3.8674.8617-1.6407,1.666-3.34,2.5277-4.9807.5745-1.0547,1.0915-2.1681,1.666-3.2228.8617-1.6993,1.7809-3.4572,3.3894-4.3948,1.7809-1.0547,3.9639-.82,5.9746-.6445a49.4394,49.4394,0,0,1,7.8129,1.2891c4.1938,1.2305,6.0321,2.3439,7.2385,6.5628A32.162,32.162,0,0,1,353.3314,237.5705Z" fill="#9c9c9c" opacity="0.25" style="isolation:isolate"/><path d="M422.7287,290.4832a58.8636,58.8636,0,0,1-2.4129,53.2643c1.3788-6.0355,2.7575-12.13,4.1363-18.1649a74.0679,74.0679,0,0,0,2.2979-14.6492c.1149-4.9221-.8042-10.0786-3.4469-14.18" fill="#848484" opacity="0.25" style="isolation:isolate"/></svg>